<svg width="40" height="40" viewBox="0 0 40 40" xmlns="http://www.w3.org/2000/svg">
<path d="M9.5 12.5C9.5 11.6703 10.1703 11 11 11H29C29.8297 11 30.5 11.6703 30.5 12.5C30.5 13.3297 29.8297 14 29 14H11C10.1703 14 9.5 13.3297 9.5 12.5ZM9.5 20C9.5 19.1703 10.1703 18.5 11 18.5H29C29.8297 18.5 30.5 19.1703 30.5 20C30.5 20.8297 29.8297 21.5 29 21.5H11C10.1703 21.5 9.5 20.8297 9.5 20ZM30.5 27.5C30.5 28.3297 29.8297 29 29 29H11C10.1703 29 9.5 28.3297 9.5 27.5C9.5 26.6703 10.1703 26 11 26H29C29.8297 26 30.5 26.6703 30.5 27.5Z"/>
</svg>
