<svg width="40" height="40" viewBox="0 0 40 40" xmlns="http://www.w3.org/2000/svg">
<path d="M29.4125 13.4125C30.1938 12.6313 30.1938 11.3625 29.4125 10.5813C28.6313 9.80005 27.3625 9.80005 26.5813 10.5813L20 17.1688L13.4125 10.5875C12.6313 9.8063 11.3625 9.8063 10.5813 10.5875C9.80005 11.3688 9.80005 12.6375 10.5813 13.4188L17.1688 20L10.5875 26.5875C9.8063 27.3688 9.8063 28.6376 10.5875 29.4188C11.3688 30.2001 12.6375 30.2001 13.4188 29.4188L20 22.8313L26.5875 29.4125C27.3688 30.1938 28.6376 30.1938 29.4188 29.4125C30.2001 28.6313 30.2001 27.3625 29.4188 26.5813L22.8313 20L29.4125 13.4125Z"/>
</svg>
