<svg width="525" height="535" viewBox="0 0 525 535" fill="none" xmlns="http://www.w3.org/2000/svg">
	<g fill="#AFC6FF">
		<circle cx="5.5" cy="2.5" r="2.5"/>
		<circle cx="18.5" cy="15.5" r="1.5"/>
		<circle cx="26.5" cy="2.5" r="2.5"/>
		<circle cx="39.5" cy="15.5" r="1.5"/>
		<circle cx="47.5" cy="2.5" r="2.5"/>
		<circle cx="60.5" cy="15.5" r="1.5"/>
		<circle cx="68.5" cy="2.5" r="2.5"/>
		<circle cx="81.5" cy="15.5" r="1.5"/>
		<circle cx="89.5" cy="2.5" r="2.5"/>
		<circle cx="102.5" cy="15.5" r="1.5"/>
		<circle cx="110.5" cy="2.5" r="2.5"/>
		<circle cx="123.5" cy="15.5" r="1.5"/>
		<circle cx="131.5" cy="2.5" r="2.5"/>
		<circle cx="144.5" cy="15.5" r="1.5"/>
		<circle cx="152.5" cy="2.5" r="2.5"/>
		<circle cx="165.5" cy="15.5" r="1.5"/>
		<circle cx="173.5" cy="2.5" r="2.5"/>
		<circle cx="186.5" cy="15.5" r="1.5"/>
		<circle cx="194.5" cy="2.5" r="2.5"/>
		<circle cx="207.5" cy="15.5" r="1.5"/>
		<circle cx="215.5" cy="2.5" r="2.5"/>
		<circle cx="228.5" cy="15.5" r="1.5"/>
		<circle cx="236.5" cy="2.5" r="2.5"/>
		<circle cx="249.5" cy="15.5" r="1.5"/>
		<circle cx="257.5" cy="2.5" r="2.5"/>
		<circle cx="270.5" cy="15.5" r="1.5"/>
		<circle cx="278.5" cy="2.5" r="2.5"/>
		<circle cx="291.5" cy="15.5" r="1.5"/>
		<circle cx="299.5" cy="2.5" r="2.5"/>
		<circle cx="312.5" cy="15.5" r="1.5"/>
		<circle cx="320.5" cy="2.5" r="2.5"/>
		<circle cx="333.5" cy="15.5" r="1.5"/>
		<circle cx="341.5" cy="2.5" r="2.5"/>
		<circle cx="354.5" cy="15.5" r="1.5"/>
		<circle cx="362.5" cy="2.5" r="2.5"/>
		<circle cx="375.5" cy="15.5" r="1.5"/>
		<circle cx="383.5" cy="2.5" r="2.5"/>
		<circle cx="396.5" cy="15.5" r="1.5"/>
		<circle cx="404.5" cy="2.5" r="2.5"/>
		<circle cx="417.5" cy="15.5" r="1.5"/>
		<circle cx="425.5" cy="2.5" r="2.5"/>
		<circle cx="438.5" cy="15.5" r="1.5"/>
		<circle cx="446.5" cy="2.5" r="2.5"/>
		<circle cx="459.5" cy="15.5" r="1.5"/>
		<circle cx="467.5" cy="2.5" r="2.5"/>
		<circle cx="480.5" cy="15.5" r="1.5"/>
		<circle cx="488.5" cy="2.5" r="2.5"/>
		<circle cx="501.5" cy="15.5" r="1.5"/>
		<circle cx="509.5" cy="2.5" r="2.5"/>
		<circle cx="522.5" cy="15.5" r="1.5"/>
		<circle cx="5.5" cy="23.5" r="2.5"/>
		<circle cx="18.5" cy="36.5" r="1.5"/>
		<circle cx="26.5" cy="23.5" r="2.5"/>
		<circle cx="39.5" cy="36.5" r="1.5"/>
		<circle cx="47.5" cy="23.5" r="2.5"/>
		<circle cx="60.5" cy="36.5" r="1.5"/>
		<circle cx="68.5" cy="23.5" r="2.5"/>
		<circle cx="81.5" cy="36.5" r="1.5"/>
		<circle cx="89.5" cy="23.5" r="2.5"/>
		<circle cx="102.5" cy="36.5" r="1.5"/>
		<circle cx="110.5" cy="23.5" r="2.5"/>
		<circle cx="123.5" cy="36.5" r="1.5"/>
		<circle cx="131.5" cy="23.5" r="2.5"/>
		<circle cx="144.5" cy="36.5" r="1.5"/>
		<circle cx="152.5" cy="23.5" r="2.5"/>
		<circle cx="165.5" cy="36.5" r="1.5"/>
		<circle cx="173.5" cy="23.5" r="2.5"/>
		<circle cx="186.5" cy="36.5" r="1.5"/>
		<circle cx="194.5" cy="23.5" r="2.5"/>
		<circle cx="207.5" cy="36.5" r="1.5"/>
		<circle cx="215.5" cy="23.5" r="2.5"/>
		<circle cx="228.5" cy="36.5" r="1.5"/>
		<circle cx="236.5" cy="23.5" r="2.5"/>
		<circle cx="249.5" cy="36.5" r="1.5"/>
		<circle cx="257.5" cy="23.5" r="2.5"/>
		<circle cx="270.5" cy="36.5" r="1.5"/>
		<circle cx="278.5" cy="23.5" r="2.5"/>
		<circle cx="291.5" cy="36.5" r="1.5"/>
		<circle cx="299.5" cy="23.5" r="2.5"/>
		<circle cx="312.5" cy="36.5" r="1.5"/>
		<circle cx="320.5" cy="23.5" r="2.5"/>
		<circle cx="333.5" cy="36.5" r="1.5"/>
		<circle cx="341.5" cy="23.5" r="2.5"/>
		<circle cx="354.5" cy="36.5" r="1.5"/>
		<circle cx="362.5" cy="23.5" r="2.5"/>
		<circle cx="375.5" cy="36.5" r="1.5"/>
		<circle cx="383.5" cy="23.5" r="2.5"/>
		<circle cx="396.5" cy="36.5" r="1.5"/>
		<circle cx="404.5" cy="23.5" r="2.5"/>
		<circle cx="417.5" cy="36.5" r="1.5"/>
		<circle cx="425.5" cy="23.5" r="2.5"/>
		<circle cx="438.5" cy="36.5" r="1.5"/>
		<circle cx="446.5" cy="23.5" r="2.5"/>
		<circle cx="459.5" cy="36.5" r="1.5"/>
		<circle cx="467.5" cy="23.5" r="2.5"/>
		<circle cx="480.5" cy="36.5" r="1.5"/>
		<circle cx="488.5" cy="23.5" r="2.5"/>
		<circle cx="501.5" cy="36.5" r="1.5"/>
		<circle cx="509.5" cy="23.5" r="2.5"/>
		<circle cx="522.5" cy="36.5" r="1.5"/>
		<circle cx="5.5" cy="44.5" r="2.5"/>
		<circle cx="18.5" cy="57.5" r="1.5"/>
		<circle cx="26.5" cy="44.5" r="2.5"/>
		<circle cx="39.5" cy="57.5" r="1.5"/>
		<circle cx="47.5" cy="44.5" r="2.5"/>
		<circle cx="60.5" cy="57.5" r="1.5"/>
		<circle cx="68.5" cy="44.5" r="2.5"/>
		<circle cx="81.5" cy="57.5" r="1.5"/>
		<circle cx="89.5" cy="44.5" r="2.5"/>
		<circle cx="102.5" cy="57.5" r="1.5"/>
		<circle cx="110.5" cy="44.5" r="2.5"/>
		<circle cx="123.5" cy="57.5" r="1.5"/>
		<circle cx="131.5" cy="44.5" r="2.5"/>
		<circle cx="144.5" cy="57.5" r="1.5"/>
		<circle cx="152.5" cy="44.5" r="2.5"/>
		<circle cx="165.5" cy="57.5" r="1.5"/>
		<circle cx="173.5" cy="44.5" r="2.5"/>
		<circle cx="186.5" cy="57.5" r="1.5"/>
		<circle cx="194.5" cy="44.5" r="2.5"/>
		<circle cx="207.5" cy="57.5" r="1.5"/>
		<circle cx="215.5" cy="44.5" r="2.5"/>
		<circle cx="228.5" cy="57.5" r="1.5"/>
		<circle cx="236.5" cy="44.5" r="2.5"/>
		<circle cx="249.5" cy="57.5" r="1.5"/>
		<circle cx="257.5" cy="44.5" r="2.5"/>
		<circle cx="270.5" cy="57.5" r="1.5"/>
		<circle cx="278.5" cy="44.5" r="2.5"/>
		<circle cx="291.5" cy="57.5" r="1.5"/>
		<circle cx="299.5" cy="44.5" r="2.5"/>
		<circle cx="312.5" cy="57.5" r="1.5"/>
		<circle cx="320.5" cy="44.5" r="2.5"/>
		<circle cx="333.5" cy="57.5" r="1.5"/>
		<circle cx="341.5" cy="44.5" r="2.5"/>
		<circle cx="354.5" cy="57.5" r="1.5"/>
		<circle cx="362.5" cy="44.5" r="2.5"/>
		<circle cx="375.5" cy="57.5" r="1.5"/>
		<circle cx="383.5" cy="44.5" r="2.5"/>
		<circle cx="396.5" cy="57.5" r="1.5"/>
		<circle cx="404.5" cy="44.5" r="2.5"/>
		<circle cx="417.5" cy="57.5" r="1.5"/>
		<circle cx="425.5" cy="44.5" r="2.5"/>
		<circle cx="438.5" cy="57.5" r="1.5"/>
		<circle cx="446.5" cy="44.5" r="2.5"/>
		<circle cx="459.5" cy="57.5" r="1.5"/>
		<circle cx="467.5" cy="44.5" r="2.5"/>
		<circle cx="480.5" cy="57.5" r="1.5"/>
		<circle cx="488.5" cy="44.5" r="2.5"/>
		<circle cx="501.5" cy="57.5" r="1.5"/>
		<circle cx="509.5" cy="44.5" r="2.5"/>
		<circle cx="522.5" cy="57.5" r="1.5"/>
		<circle cx="5.5" cy="65.5" r="2.5"/>
		<circle cx="18.5" cy="78.5" r="1.5"/>
		<circle cx="26.5" cy="65.5" r="2.5"/>
		<circle cx="39.5" cy="78.5" r="1.5"/>
		<circle cx="47.5" cy="65.5" r="2.5"/>
		<circle cx="60.5" cy="78.5" r="1.5"/>
		<circle cx="68.5" cy="65.5" r="2.5"/>
		<circle cx="81.5" cy="78.5" r="1.5"/>
		<circle cx="89.5" cy="65.5" r="2.5"/>
		<circle cx="102.5" cy="78.5" r="1.5"/>
		<circle cx="110.5" cy="65.5" r="2.5"/>
		<circle cx="123.5" cy="78.5" r="1.5"/>
		<circle cx="131.5" cy="65.5" r="2.5"/>
		<circle cx="144.5" cy="78.5" r="1.5"/>
		<circle cx="152.5" cy="65.5" r="2.5"/>
		<circle cx="165.5" cy="78.5" r="1.5"/>
		<circle cx="173.5" cy="65.5" r="2.5"/>
		<circle cx="186.5" cy="78.5" r="1.5"/>
		<circle cx="194.5" cy="65.5" r="2.5"/>
		<circle cx="207.5" cy="78.5" r="1.5"/>
		<circle cx="215.5" cy="65.5" r="2.5"/>
		<circle cx="228.5" cy="78.5" r="1.5"/>
		<circle cx="236.5" cy="65.5" r="2.5"/>
		<circle cx="249.5" cy="78.5" r="1.5"/>
		<circle cx="257.5" cy="65.5" r="2.5"/>
		<circle cx="270.5" cy="78.5" r="1.5"/>
		<circle cx="278.5" cy="65.5" r="2.5"/>
		<circle cx="291.5" cy="78.5" r="1.5"/>
		<circle cx="299.5" cy="65.5" r="2.5"/>
		<circle cx="312.5" cy="78.5" r="1.5"/>
		<circle cx="320.5" cy="65.5" r="2.5"/>
		<circle cx="333.5" cy="78.5" r="1.5"/>
		<circle cx="341.5" cy="65.5" r="2.5"/>
		<circle cx="354.5" cy="78.5" r="1.5"/>
		<circle cx="362.5" cy="65.5" r="2.5"/>
		<circle cx="375.5" cy="78.5" r="1.5"/>
		<circle cx="383.5" cy="65.5" r="2.5"/>
		<circle cx="396.5" cy="78.5" r="1.5"/>
		<circle cx="404.5" cy="65.5" r="2.5"/>
		<circle cx="417.5" cy="78.5" r="1.5"/>
		<circle cx="425.5" cy="65.5" r="2.5"/>
		<circle cx="438.5" cy="78.5" r="1.5"/>
		<circle cx="446.5" cy="65.5" r="2.5"/>
		<circle cx="459.5" cy="78.5" r="1.5"/>
		<circle cx="467.5" cy="65.5" r="2.5"/>
		<circle cx="480.5" cy="78.5" r="1.5"/>
		<circle cx="488.5" cy="65.5" r="2.5"/>
		<circle cx="501.5" cy="78.5" r="1.5"/>
		<circle cx="509.5" cy="65.5" r="2.5"/>
		<circle cx="522.5" cy="78.5" r="1.5"/>
		<circle cx="5.5" cy="86.5" r="2.5"/>
		<circle cx="18.5" cy="99.5" r="1.5"/>
		<circle cx="26.5" cy="86.5" r="2.5"/>
		<circle cx="39.5" cy="99.5" r="1.5"/>
		<circle cx="47.5" cy="86.5" r="2.5"/>
		<circle cx="60.5" cy="99.5" r="1.5"/>
		<circle cx="68.5" cy="86.5" r="2.5"/>
		<circle cx="81.5" cy="99.5" r="1.5"/>
		<circle cx="89.5" cy="86.5" r="2.5"/>
		<circle cx="102.5" cy="99.5" r="1.5"/>
		<circle cx="110.5" cy="86.5" r="2.5"/>
		<circle cx="123.5" cy="99.5" r="1.5"/>
		<circle cx="131.5" cy="86.5" r="2.5"/>
		<circle cx="144.5" cy="99.5" r="1.5"/>
		<circle cx="152.5" cy="86.5" r="2.5"/>
		<circle cx="165.5" cy="99.5" r="1.5"/>
		<circle cx="173.5" cy="86.5" r="2.5"/>
		<circle cx="186.5" cy="99.5" r="1.5"/>
		<circle cx="194.5" cy="86.5" r="2.5"/>
		<circle cx="207.5" cy="99.5" r="1.5"/>
		<circle cx="215.5" cy="86.5" r="2.5"/>
		<circle cx="228.5" cy="99.5" r="1.5"/>
		<circle cx="236.5" cy="86.5" r="2.5"/>
		<circle cx="249.5" cy="99.5" r="1.5"/>
		<circle cx="257.5" cy="86.5" r="2.5"/>
		<circle cx="270.5" cy="99.5" r="1.5"/>
		<circle cx="278.5" cy="86.5" r="2.5"/>
		<circle cx="291.5" cy="99.5" r="1.5"/>
		<circle cx="299.5" cy="86.5" r="2.5"/>
		<circle cx="312.5" cy="99.5" r="1.5"/>
		<circle cx="320.5" cy="86.5" r="2.5"/>
		<circle cx="333.5" cy="99.5" r="1.5"/>
		<circle cx="341.5" cy="86.5" r="2.5"/>
		<circle cx="354.5" cy="99.5" r="1.5"/>
		<circle cx="362.5" cy="86.5" r="2.5"/>
		<circle cx="375.5" cy="99.5" r="1.5"/>
		<circle cx="383.5" cy="86.5" r="2.5"/>
		<circle cx="396.5" cy="99.5" r="1.5"/>
		<circle cx="404.5" cy="86.5" r="2.5"/>
		<circle cx="417.5" cy="99.5" r="1.5"/>
		<circle cx="425.5" cy="86.5" r="2.5"/>
		<circle cx="438.5" cy="99.5" r="1.5"/>
		<circle cx="446.5" cy="86.5" r="2.5"/>
		<circle cx="459.5" cy="99.5" r="1.5"/>
		<circle cx="467.5" cy="86.5" r="2.5"/>
		<circle cx="480.5" cy="99.5" r="1.5"/>
		<circle cx="488.5" cy="86.5" r="2.5"/>
		<circle cx="501.5" cy="99.5" r="1.5"/>
		<circle cx="509.5" cy="86.5" r="2.5"/>
		<circle cx="522.5" cy="99.5" r="1.5"/>
		<circle cx="5.5" cy="107.5" r="2.5"/>
		<circle cx="18.5" cy="120.5" r="1.5"/>
		<circle cx="26.5" cy="107.5" r="2.5"/>
		<circle cx="39.5" cy="120.5" r="1.5"/>
		<circle cx="47.5" cy="107.5" r="2.5"/>
		<circle cx="60.5" cy="120.5" r="1.5"/>
		<circle cx="68.5" cy="107.5" r="2.5"/>
		<circle cx="81.5" cy="120.5" r="1.5"/>
		<circle cx="89.5" cy="107.5" r="2.5"/>
		<circle cx="102.5" cy="120.5" r="1.5"/>
		<circle cx="110.5" cy="107.5" r="2.5"/>
		<circle cx="123.5" cy="120.5" r="1.5"/>
		<circle cx="131.5" cy="107.5" r="2.5"/>
		<circle cx="144.5" cy="120.5" r="1.5"/>
		<circle cx="152.5" cy="107.5" r="2.5"/>
		<circle cx="165.5" cy="120.5" r="1.5"/>
		<circle cx="173.5" cy="107.5" r="2.5"/>
		<circle cx="186.5" cy="120.5" r="1.5"/>
		<circle cx="194.5" cy="107.5" r="2.5"/>
		<circle cx="207.5" cy="120.5" r="1.5"/>
		<circle cx="215.5" cy="107.5" r="2.5"/>
		<circle cx="228.5" cy="120.5" r="1.5"/>
		<circle cx="236.5" cy="107.5" r="2.5"/>
		<circle cx="249.5" cy="120.5" r="1.5"/>
		<circle cx="257.5" cy="107.5" r="2.5"/>
		<circle cx="270.5" cy="120.5" r="1.5"/>
		<circle cx="278.5" cy="107.5" r="2.5"/>
		<circle cx="291.5" cy="120.5" r="1.5"/>
		<circle cx="299.5" cy="107.5" r="2.5"/>
		<circle cx="312.5" cy="120.5" r="1.5"/>
		<circle cx="320.5" cy="107.5" r="2.5"/>
		<circle cx="333.5" cy="120.5" r="1.5"/>
		<circle cx="341.5" cy="107.5" r="2.5"/>
		<circle cx="354.5" cy="120.5" r="1.5"/>
		<circle cx="362.5" cy="107.5" r="2.5"/>
		<circle cx="375.5" cy="120.5" r="1.5"/>
		<circle cx="383.5" cy="107.5" r="2.5"/>
		<circle cx="396.5" cy="120.5" r="1.5"/>
		<circle cx="404.5" cy="107.5" r="2.5"/>
		<circle cx="417.5" cy="120.5" r="1.5"/>
		<circle cx="425.5" cy="107.5" r="2.5"/>
		<circle cx="438.5" cy="120.5" r="1.5"/>
		<circle cx="446.5" cy="107.5" r="2.5"/>
		<circle cx="459.5" cy="120.5" r="1.5"/>
		<circle cx="467.5" cy="107.5" r="2.5"/>
		<circle cx="480.5" cy="120.5" r="1.5"/>
		<circle cx="488.5" cy="107.5" r="2.5"/>
		<circle cx="501.5" cy="120.5" r="1.5"/>
		<circle cx="509.5" cy="107.5" r="2.5"/>
		<circle cx="522.5" cy="120.5" r="1.5"/>
		<circle cx="5.5" cy="128.5" r="2.5"/>
		<circle cx="18.5" cy="141.5" r="1.5"/>
		<circle cx="26.5" cy="128.5" r="2.5"/>
		<circle cx="39.5" cy="141.5" r="1.5"/>
		<circle cx="47.5" cy="128.5" r="2.5"/>
		<circle cx="60.5" cy="141.5" r="1.5"/>
		<circle cx="68.5" cy="128.5" r="2.5"/>
		<circle cx="81.5" cy="141.5" r="1.5"/>
		<circle cx="89.5" cy="128.5" r="2.5"/>
		<circle cx="102.5" cy="141.5" r="1.5"/>
		<circle cx="110.5" cy="128.5" r="2.5"/>
		<circle cx="123.5" cy="141.5" r="1.5"/>
		<circle cx="131.5" cy="128.5" r="2.5"/>
		<circle cx="144.5" cy="141.5" r="1.5"/>
		<circle cx="152.5" cy="128.5" r="2.5"/>
		<circle cx="165.5" cy="141.5" r="1.5"/>
		<circle cx="173.5" cy="128.5" r="2.5"/>
		<circle cx="186.5" cy="141.5" r="1.5"/>
		<circle cx="194.5" cy="128.5" r="2.5"/>
		<circle cx="207.5" cy="141.5" r="1.5"/>
		<circle cx="215.5" cy="128.5" r="2.5"/>
		<circle cx="228.5" cy="141.5" r="1.5"/>
		<circle cx="236.5" cy="128.5" r="2.5"/>
		<circle cx="249.5" cy="141.5" r="1.5"/>
		<circle cx="257.5" cy="128.5" r="2.5"/>
		<circle cx="270.5" cy="141.5" r="1.5"/>
		<circle cx="278.5" cy="128.5" r="2.5"/>
		<circle cx="291.5" cy="141.5" r="1.5"/>
		<circle cx="299.5" cy="128.5" r="2.5"/>
		<circle cx="312.5" cy="141.5" r="1.5"/>
		<circle cx="320.5" cy="128.5" r="2.5"/>
		<circle cx="333.5" cy="141.5" r="1.5"/>
		<circle cx="341.5" cy="128.5" r="2.5"/>
		<circle cx="354.5" cy="141.5" r="1.5"/>
		<circle cx="362.5" cy="128.5" r="2.5"/>
		<circle cx="375.5" cy="141.5" r="1.5"/>
		<circle cx="383.5" cy="128.5" r="2.5"/>
		<circle cx="396.5" cy="141.5" r="1.5"/>
		<circle cx="404.5" cy="128.5" r="2.5"/>
		<circle cx="417.5" cy="141.5" r="1.5"/>
		<circle cx="425.5" cy="128.5" r="2.5"/>
		<circle cx="438.5" cy="141.5" r="1.5"/>
		<circle cx="446.5" cy="128.5" r="2.5"/>
		<circle cx="459.5" cy="141.5" r="1.5"/>
		<circle cx="467.5" cy="128.5" r="2.5"/>
		<circle cx="480.5" cy="141.5" r="1.5"/>
		<circle cx="488.5" cy="128.5" r="2.5"/>
		<circle cx="501.5" cy="141.5" r="1.5"/>
		<circle cx="509.5" cy="128.5" r="2.5"/>
		<circle cx="522.5" cy="141.5" r="1.5"/>
		<circle cx="5.5" cy="149.5" r="2.5"/>
		<circle cx="18.5" cy="162.5" r="1.5"/>
		<circle cx="26.5" cy="149.5" r="2.5"/>
		<circle cx="39.5" cy="162.5" r="1.5"/>
		<circle cx="47.5" cy="149.5" r="2.5"/>
		<circle cx="60.5" cy="162.5" r="1.5"/>
		<circle cx="68.5" cy="149.5" r="2.5"/>
		<circle cx="81.5" cy="162.5" r="1.5"/>
		<circle cx="89.5" cy="149.5" r="2.5"/>
		<circle cx="102.5" cy="162.5" r="1.5"/>
		<circle cx="110.5" cy="149.5" r="2.5"/>
		<circle cx="123.5" cy="162.5" r="1.5"/>
		<circle cx="131.5" cy="149.5" r="2.5"/>
		<circle cx="144.5" cy="162.5" r="1.5"/>
		<circle cx="152.5" cy="149.5" r="2.5"/>
		<circle cx="165.5" cy="162.5" r="1.5"/>
		<circle cx="173.5" cy="149.5" r="2.5"/>
		<circle cx="186.5" cy="162.5" r="1.5"/>
		<circle cx="194.5" cy="149.5" r="2.5"/>
		<circle cx="207.5" cy="162.5" r="1.5"/>
		<circle cx="215.5" cy="149.5" r="2.5"/>
		<circle cx="228.5" cy="162.5" r="1.5"/>
		<circle cx="236.5" cy="149.5" r="2.5"/>
		<circle cx="249.5" cy="162.5" r="1.5"/>
		<circle cx="257.5" cy="149.5" r="2.5"/>
		<circle cx="270.5" cy="162.5" r="1.5"/>
		<circle cx="278.5" cy="149.5" r="2.5"/>
		<circle cx="291.5" cy="162.5" r="1.5"/>
		<circle cx="299.5" cy="149.5" r="2.5"/>
		<circle cx="312.5" cy="162.5" r="1.5"/>
		<circle cx="320.5" cy="149.5" r="2.5"/>
		<circle cx="333.5" cy="162.5" r="1.5"/>
		<circle cx="341.5" cy="149.5" r="2.5"/>
		<circle cx="354.5" cy="162.5" r="1.5"/>
		<circle cx="362.5" cy="149.5" r="2.5"/>
		<circle cx="375.5" cy="162.5" r="1.5"/>
		<circle cx="383.5" cy="149.5" r="2.5"/>
		<circle cx="396.5" cy="162.5" r="1.5"/>
		<circle cx="404.5" cy="149.5" r="2.5"/>
		<circle cx="417.5" cy="162.5" r="1.5"/>
		<circle cx="425.5" cy="149.5" r="2.5"/>
		<circle cx="438.5" cy="162.5" r="1.5"/>
		<circle cx="446.5" cy="149.5" r="2.5"/>
		<circle cx="459.5" cy="162.5" r="1.5"/>
		<circle cx="467.5" cy="149.5" r="2.5"/>
		<circle cx="480.5" cy="162.5" r="1.5"/>
		<circle cx="488.5" cy="149.5" r="2.5"/>
		<circle cx="501.5" cy="162.5" r="1.5"/>
		<circle cx="509.5" cy="149.5" r="2.5"/>
		<circle cx="522.5" cy="162.5" r="1.5"/>
		<circle cx="5.5" cy="170.5" r="2.5"/>
		<circle cx="18.5" cy="183.5" r="1.5"/>
		<circle cx="26.5" cy="170.5" r="2.5"/>
		<circle cx="39.5" cy="183.5" r="1.5"/>
		<circle cx="47.5" cy="170.5" r="2.5"/>
		<circle cx="60.5" cy="183.5" r="1.5"/>
		<circle cx="68.5" cy="170.5" r="2.5"/>
		<circle cx="81.5" cy="183.5" r="1.5"/>
		<circle cx="89.5" cy="170.5" r="2.5"/>
		<circle cx="102.5" cy="183.5" r="1.5"/>
		<circle cx="110.5" cy="170.5" r="2.5"/>
		<circle cx="123.5" cy="183.5" r="1.5"/>
		<circle cx="131.5" cy="170.5" r="2.5"/>
		<circle cx="144.5" cy="183.5" r="1.5"/>
		<circle cx="152.5" cy="170.5" r="2.5"/>
		<circle cx="165.5" cy="183.5" r="1.5"/>
		<circle cx="173.5" cy="170.5" r="2.5"/>
		<circle cx="186.5" cy="183.5" r="1.5"/>
		<circle cx="194.5" cy="170.5" r="2.5"/>
		<circle cx="207.5" cy="183.5" r="1.5"/>
		<circle cx="215.5" cy="170.5" r="2.5"/>
		<circle cx="228.5" cy="183.5" r="1.5"/>
		<circle cx="236.5" cy="170.5" r="2.5"/>
		<circle cx="249.5" cy="183.5" r="1.5"/>
		<circle cx="257.5" cy="170.5" r="2.5"/>
		<circle cx="270.5" cy="183.5" r="1.5"/>
		<circle cx="278.5" cy="170.5" r="2.5"/>
		<circle cx="291.5" cy="183.5" r="1.5"/>
		<circle cx="299.5" cy="170.5" r="2.5"/>
		<circle cx="312.5" cy="183.5" r="1.5"/>
		<circle cx="320.5" cy="170.5" r="2.5"/>
		<circle cx="333.5" cy="183.5" r="1.5"/>
		<circle cx="341.5" cy="170.5" r="2.5"/>
		<circle cx="354.5" cy="183.5" r="1.5"/>
		<circle cx="362.5" cy="170.5" r="2.5"/>
		<circle cx="375.5" cy="183.5" r="1.5"/>
		<circle cx="383.5" cy="170.5" r="2.5"/>
		<circle cx="396.5" cy="183.5" r="1.5"/>
		<circle cx="404.5" cy="170.5" r="2.5"/>
		<circle cx="417.5" cy="183.5" r="1.5"/>
		<circle cx="425.5" cy="170.5" r="2.5"/>
		<circle cx="438.5" cy="183.5" r="1.5"/>
		<circle cx="446.5" cy="170.5" r="2.5"/>
		<circle cx="459.5" cy="183.5" r="1.5"/>
		<circle cx="467.5" cy="170.5" r="2.5"/>
		<circle cx="480.5" cy="183.5" r="1.5"/>
		<circle cx="488.5" cy="170.5" r="2.5"/>
		<circle cx="501.5" cy="183.5" r="1.5"/>
		<circle cx="509.5" cy="170.5" r="2.5"/>
		<circle cx="522.5" cy="183.5" r="1.5"/>
		<circle cx="5.5" cy="191.5" r="2.5"/>
		<circle cx="18.5" cy="204.5" r="1.5"/>
		<circle cx="26.5" cy="191.5" r="2.5"/>
		<circle cx="39.5" cy="204.5" r="1.5"/>
		<circle cx="47.5" cy="191.5" r="2.5"/>
		<circle cx="60.5" cy="204.5" r="1.5"/>
		<circle cx="68.5" cy="191.5" r="2.5"/>
		<circle cx="81.5" cy="204.5" r="1.5"/>
		<circle cx="89.5" cy="191.5" r="2.5"/>
		<circle cx="102.5" cy="204.5" r="1.5"/>
		<circle cx="110.5" cy="191.5" r="2.5"/>
		<circle cx="123.5" cy="204.5" r="1.5"/>
		<circle cx="131.5" cy="191.5" r="2.5"/>
		<circle cx="144.5" cy="204.5" r="1.5"/>
		<circle cx="152.5" cy="191.5" r="2.5"/>
		<circle cx="165.5" cy="204.5" r="1.5"/>
		<circle cx="173.5" cy="191.5" r="2.5"/>
		<circle cx="186.5" cy="204.5" r="1.5"/>
		<circle cx="194.5" cy="191.5" r="2.5"/>
		<circle cx="207.5" cy="204.5" r="1.5"/>
		<circle cx="215.5" cy="191.5" r="2.5"/>
		<circle cx="228.5" cy="204.5" r="1.5"/>
		<circle cx="236.5" cy="191.5" r="2.5"/>
		<circle cx="249.5" cy="204.5" r="1.5"/>
		<circle cx="257.5" cy="191.5" r="2.5"/>
		<circle cx="270.5" cy="204.5" r="1.5"/>
		<circle cx="278.5" cy="191.5" r="2.5"/>
		<circle cx="291.5" cy="204.5" r="1.5"/>
		<circle cx="299.5" cy="191.5" r="2.5"/>
		<circle cx="312.5" cy="204.5" r="1.5"/>
		<circle cx="320.5" cy="191.5" r="2.5"/>
		<circle cx="333.5" cy="204.5" r="1.5"/>
		<circle cx="341.5" cy="191.5" r="2.5"/>
		<circle cx="354.5" cy="204.5" r="1.5"/>
		<circle cx="362.5" cy="191.5" r="2.5"/>
		<circle cx="375.5" cy="204.5" r="1.5"/>
		<circle cx="383.5" cy="191.5" r="2.5"/>
		<circle cx="396.5" cy="204.5" r="1.5"/>
		<circle cx="404.5" cy="191.5" r="2.5"/>
		<circle cx="417.5" cy="204.5" r="1.5"/>
		<circle cx="425.5" cy="191.5" r="2.5"/>
		<circle cx="438.5" cy="204.5" r="1.5"/>
		<circle cx="446.5" cy="191.5" r="2.5"/>
		<circle cx="459.5" cy="204.5" r="1.5"/>
		<circle cx="467.5" cy="191.5" r="2.5"/>
		<circle cx="480.5" cy="204.5" r="1.5"/>
		<circle cx="488.5" cy="191.5" r="2.5"/>
		<circle cx="501.5" cy="204.5" r="1.5"/>
		<circle cx="509.5" cy="191.5" r="2.5"/>
		<circle cx="522.5" cy="204.5" r="1.5"/>
		<circle cx="5.5" cy="212.5" r="2.5"/>
		<circle cx="18.5" cy="225.5" r="1.5"/>
		<circle cx="26.5" cy="212.5" r="2.5"/>
		<circle cx="39.5" cy="225.5" r="1.5"/>
		<circle cx="47.5" cy="212.5" r="2.5"/>
		<circle cx="60.5" cy="225.5" r="1.5"/>
		<circle cx="68.5" cy="212.5" r="2.5"/>
		<circle cx="81.5" cy="225.5" r="1.5"/>
		<circle cx="89.5" cy="212.5" r="2.5"/>
		<circle cx="102.5" cy="225.5" r="1.5"/>
		<circle cx="110.5" cy="212.5" r="2.5"/>
		<circle cx="123.5" cy="225.5" r="1.5"/>
		<circle cx="131.5" cy="212.5" r="2.5"/>
		<circle cx="144.5" cy="225.5" r="1.5"/>
		<circle cx="152.5" cy="212.5" r="2.5"/>
		<circle cx="165.5" cy="225.5" r="1.5"/>
		<circle cx="173.5" cy="212.5" r="2.5"/>
		<circle cx="186.5" cy="225.5" r="1.5"/>
		<circle cx="194.5" cy="212.5" r="2.5"/>
		<circle cx="207.5" cy="225.5" r="1.5"/>
		<circle cx="215.5" cy="212.5" r="2.5"/>
		<circle cx="228.5" cy="225.5" r="1.5"/>
		<circle cx="236.5" cy="212.5" r="2.5"/>
		<circle cx="249.5" cy="225.5" r="1.5"/>
		<circle cx="257.5" cy="212.5" r="2.5"/>
		<circle cx="270.5" cy="225.5" r="1.5"/>
		<circle cx="278.5" cy="212.5" r="2.5"/>
		<circle cx="291.5" cy="225.5" r="1.5"/>
		<circle cx="299.5" cy="212.5" r="2.5"/>
		<circle cx="312.5" cy="225.5" r="1.5"/>
		<circle cx="320.5" cy="212.5" r="2.5"/>
		<circle cx="333.5" cy="225.5" r="1.5"/>
		<circle cx="341.5" cy="212.5" r="2.5"/>
		<circle cx="354.5" cy="225.5" r="1.5"/>
		<circle cx="362.5" cy="212.5" r="2.5"/>
		<circle cx="375.5" cy="225.5" r="1.5"/>
		<circle cx="383.5" cy="212.5" r="2.5"/>
		<circle cx="396.5" cy="225.5" r="1.5"/>
		<circle cx="404.5" cy="212.5" r="2.5"/>
		<circle cx="417.5" cy="225.5" r="1.5"/>
		<circle cx="425.5" cy="212.5" r="2.5"/>
		<circle cx="438.5" cy="225.5" r="1.5"/>
		<circle cx="446.5" cy="212.5" r="2.5"/>
		<circle cx="459.5" cy="225.5" r="1.5"/>
		<circle cx="467.5" cy="212.5" r="2.5"/>
		<circle cx="480.5" cy="225.5" r="1.5"/>
		<circle cx="488.5" cy="212.5" r="2.5"/>
		<circle cx="501.5" cy="225.5" r="1.5"/>
		<circle cx="509.5" cy="212.5" r="2.5"/>
		<circle cx="522.5" cy="225.5" r="1.5"/>
		<circle cx="5.5" cy="233.5" r="2.5"/>
		<circle cx="18.5" cy="246.5" r="1.5"/>
		<circle cx="26.5" cy="233.5" r="2.5"/>
		<circle cx="39.5" cy="246.5" r="1.5"/>
		<circle cx="47.5" cy="233.5" r="2.5"/>
		<circle cx="60.5" cy="246.5" r="1.5"/>
		<circle cx="68.5" cy="233.5" r="2.5"/>
		<circle cx="81.5" cy="246.5" r="1.5"/>
		<circle cx="89.5" cy="233.5" r="2.5"/>
		<circle cx="102.5" cy="246.5" r="1.5"/>
		<circle cx="110.5" cy="233.5" r="2.5"/>
		<circle cx="123.5" cy="246.5" r="1.5"/>
		<circle cx="131.5" cy="233.5" r="2.5"/>
		<circle cx="144.5" cy="246.5" r="1.5"/>
		<circle cx="152.5" cy="233.5" r="2.5"/>
		<circle cx="165.5" cy="246.5" r="1.5"/>
		<circle cx="173.5" cy="233.5" r="2.5"/>
		<circle cx="186.5" cy="246.5" r="1.5"/>
		<circle cx="194.5" cy="233.5" r="2.5"/>
		<circle cx="207.5" cy="246.5" r="1.5"/>
		<circle cx="215.5" cy="233.5" r="2.5"/>
		<circle cx="228.5" cy="246.5" r="1.5"/>
		<circle cx="236.5" cy="233.5" r="2.5"/>
		<circle cx="249.5" cy="246.5" r="1.5"/>
		<circle cx="257.5" cy="233.5" r="2.5"/>
		<circle cx="270.5" cy="246.5" r="1.5"/>
		<circle cx="278.5" cy="233.5" r="2.5"/>
		<circle cx="291.5" cy="246.5" r="1.5"/>
		<circle cx="299.5" cy="233.5" r="2.5"/>
		<circle cx="312.5" cy="246.5" r="1.5"/>
		<circle cx="320.5" cy="233.5" r="2.5"/>
		<circle cx="333.5" cy="246.5" r="1.5"/>
		<circle cx="341.5" cy="233.5" r="2.5"/>
		<circle cx="354.5" cy="246.5" r="1.5"/>
		<circle cx="362.5" cy="233.5" r="2.5"/>
		<circle cx="375.5" cy="246.5" r="1.5"/>
		<circle cx="383.5" cy="233.5" r="2.5"/>
		<circle cx="396.5" cy="246.5" r="1.5"/>
		<circle cx="404.5" cy="233.5" r="2.5"/>
		<circle cx="417.5" cy="246.5" r="1.5"/>
		<circle cx="425.5" cy="233.5" r="2.5"/>
		<circle cx="438.5" cy="246.5" r="1.5"/>
		<circle cx="446.5" cy="233.5" r="2.5"/>
		<circle cx="459.5" cy="246.5" r="1.5"/>
		<circle cx="467.5" cy="233.5" r="2.5"/>
		<circle cx="480.5" cy="246.5" r="1.5"/>
		<circle cx="488.5" cy="233.5" r="2.5"/>
		<circle cx="501.5" cy="246.5" r="1.5"/>
		<circle cx="509.5" cy="233.5" r="2.5"/>
		<circle cx="522.5" cy="246.5" r="1.5"/>
		<circle cx="5.5" cy="254.5" r="2.5"/>
		<circle cx="18.5" cy="267.5" r="1.5"/>
		<circle cx="26.5" cy="254.5" r="2.5"/>
		<circle cx="39.5" cy="267.5" r="1.5"/>
		<circle cx="47.5" cy="254.5" r="2.5"/>
		<circle cx="60.5" cy="267.5" r="1.5"/>
		<circle cx="68.5" cy="254.5" r="2.5"/>
		<circle cx="81.5" cy="267.5" r="1.5"/>
		<circle cx="89.5" cy="254.5" r="2.5"/>
		<circle cx="102.5" cy="267.5" r="1.5"/>
		<circle cx="110.5" cy="254.5" r="2.5"/>
		<circle cx="123.5" cy="267.5" r="1.5"/>
		<circle cx="131.5" cy="254.5" r="2.5"/>
		<circle cx="144.5" cy="267.5" r="1.5"/>
		<circle cx="152.5" cy="254.5" r="2.5"/>
		<circle cx="165.5" cy="267.5" r="1.5"/>
		<circle cx="173.5" cy="254.5" r="2.5"/>
		<circle cx="186.5" cy="267.5" r="1.5"/>
		<circle cx="194.5" cy="254.5" r="2.5"/>
		<circle cx="207.5" cy="267.5" r="1.5"/>
		<circle cx="215.5" cy="254.5" r="2.5"/>
		<circle cx="228.5" cy="267.5" r="1.5"/>
		<circle cx="236.5" cy="254.5" r="2.5"/>
		<circle cx="249.5" cy="267.5" r="1.5"/>
		<circle cx="257.5" cy="254.5" r="2.5"/>
		<circle cx="270.5" cy="267.5" r="1.5"/>
		<circle cx="278.5" cy="254.5" r="2.5"/>
		<circle cx="291.5" cy="267.5" r="1.5"/>
		<circle cx="299.5" cy="254.5" r="2.5"/>
		<circle cx="312.5" cy="267.5" r="1.5"/>
		<circle cx="320.5" cy="254.5" r="2.5"/>
		<circle cx="333.5" cy="267.5" r="1.5"/>
		<circle cx="341.5" cy="254.5" r="2.5"/>
		<circle cx="354.5" cy="267.5" r="1.5"/>
		<circle cx="362.5" cy="254.5" r="2.5"/>
		<circle cx="375.5" cy="267.5" r="1.5"/>
		<circle cx="383.5" cy="254.5" r="2.5"/>
		<circle cx="396.5" cy="267.5" r="1.5"/>
		<circle cx="404.5" cy="254.5" r="2.5"/>
		<circle cx="417.5" cy="267.5" r="1.5"/>
		<circle cx="425.5" cy="254.5" r="2.5"/>
		<circle cx="438.5" cy="267.5" r="1.5"/>
		<circle cx="446.5" cy="254.5" r="2.5"/>
		<circle cx="459.5" cy="267.5" r="1.5"/>
		<circle cx="467.5" cy="254.5" r="2.5"/>
		<circle cx="480.5" cy="267.5" r="1.5"/>
		<circle cx="488.5" cy="254.5" r="2.5"/>
		<circle cx="501.5" cy="267.5" r="1.5"/>
		<circle cx="509.5" cy="254.5" r="2.5"/>
		<circle cx="522.5" cy="267.5" r="1.5"/>
		<circle cx="5.5" cy="275.5" r="2.5"/>
		<circle cx="18.5" cy="288.5" r="1.5"/>
		<circle cx="26.5" cy="275.5" r="2.5"/>
		<circle cx="39.5" cy="288.5" r="1.5"/>
		<circle cx="47.5" cy="275.5" r="2.5"/>
		<circle cx="60.5" cy="288.5" r="1.5"/>
		<circle cx="68.5" cy="275.5" r="2.5"/>
		<circle cx="81.5" cy="288.5" r="1.5"/>
		<circle cx="89.5" cy="275.5" r="2.5"/>
		<circle cx="102.5" cy="288.5" r="1.5"/>
		<circle cx="110.5" cy="275.5" r="2.5"/>
		<circle cx="123.5" cy="288.5" r="1.5"/>
		<circle cx="131.5" cy="275.5" r="2.5"/>
		<circle cx="144.5" cy="288.5" r="1.5"/>
		<circle cx="152.5" cy="275.5" r="2.5"/>
		<circle cx="165.5" cy="288.5" r="1.5"/>
		<circle cx="173.5" cy="275.5" r="2.5"/>
		<circle cx="186.5" cy="288.5" r="1.5"/>
		<circle cx="194.5" cy="275.5" r="2.5"/>
		<circle cx="207.5" cy="288.5" r="1.5"/>
		<circle cx="215.5" cy="275.5" r="2.5"/>
		<circle cx="228.5" cy="288.5" r="1.5"/>
		<circle cx="236.5" cy="275.5" r="2.5"/>
		<circle cx="249.5" cy="288.5" r="1.5"/>
		<circle cx="257.5" cy="275.5" r="2.5"/>
		<circle cx="270.5" cy="288.5" r="1.5"/>
		<circle cx="278.5" cy="275.5" r="2.5"/>
		<circle cx="291.5" cy="288.5" r="1.5"/>
		<circle cx="299.5" cy="275.5" r="2.5"/>
		<circle cx="312.5" cy="288.5" r="1.5"/>
		<circle cx="320.5" cy="275.5" r="2.5"/>
		<circle cx="333.5" cy="288.5" r="1.5"/>
		<circle cx="341.5" cy="275.5" r="2.5"/>
		<circle cx="354.5" cy="288.5" r="1.5"/>
		<circle cx="362.5" cy="275.5" r="2.5"/>
		<circle cx="375.5" cy="288.5" r="1.5"/>
		<circle cx="383.5" cy="275.5" r="2.5"/>
		<circle cx="396.5" cy="288.5" r="1.5"/>
		<circle cx="404.5" cy="275.5" r="2.5"/>
		<circle cx="417.5" cy="288.5" r="1.5"/>
		<circle cx="425.5" cy="275.5" r="2.5"/>
		<circle cx="438.5" cy="288.5" r="1.5"/>
		<circle cx="446.5" cy="275.5" r="2.5"/>
		<circle cx="459.5" cy="288.5" r="1.5"/>
		<circle cx="467.5" cy="275.5" r="2.5"/>
		<circle cx="480.5" cy="288.5" r="1.5"/>
		<circle cx="488.5" cy="275.5" r="2.5"/>
		<circle cx="501.5" cy="288.5" r="1.5"/>
		<circle cx="509.5" cy="275.5" r="2.5"/>
		<circle cx="522.5" cy="288.5" r="1.5"/>
		<circle cx="5.5" cy="296.5" r="2.5"/>
		<circle cx="18.5" cy="309.5" r="1.5"/>
		<circle cx="26.5" cy="296.5" r="2.5"/>
		<circle cx="39.5" cy="309.5" r="1.5"/>
		<circle cx="47.5" cy="296.5" r="2.5"/>
		<circle cx="60.5" cy="309.5" r="1.5"/>
		<circle cx="68.5" cy="296.5" r="2.5"/>
		<circle cx="81.5" cy="309.5" r="1.5"/>
		<circle cx="89.5" cy="296.5" r="2.5"/>
		<circle cx="102.5" cy="309.5" r="1.5"/>
		<circle cx="110.5" cy="296.5" r="2.5"/>
		<circle cx="123.5" cy="309.5" r="1.5"/>
		<circle cx="131.5" cy="296.5" r="2.5"/>
		<circle cx="144.5" cy="309.5" r="1.5"/>
		<circle cx="152.5" cy="296.5" r="2.5"/>
		<circle cx="165.5" cy="309.5" r="1.5"/>
		<circle cx="173.5" cy="296.5" r="2.5"/>
		<circle cx="186.5" cy="309.5" r="1.5"/>
		<circle cx="194.5" cy="296.5" r="2.5"/>
		<circle cx="207.5" cy="309.5" r="1.5"/>
		<circle cx="215.5" cy="296.5" r="2.5"/>
		<circle cx="228.5" cy="309.5" r="1.5"/>
		<circle cx="236.5" cy="296.5" r="2.5"/>
		<circle cx="249.5" cy="309.5" r="1.5"/>
		<circle cx="257.5" cy="296.5" r="2.5"/>
		<circle cx="270.5" cy="309.5" r="1.5"/>
		<circle cx="278.5" cy="296.5" r="2.5"/>
		<circle cx="291.5" cy="309.5" r="1.5"/>
		<circle cx="299.5" cy="296.5" r="2.5"/>
		<circle cx="312.5" cy="309.5" r="1.5"/>
		<circle cx="320.5" cy="296.5" r="2.5"/>
		<circle cx="333.5" cy="309.5" r="1.5"/>
		<circle cx="341.5" cy="296.5" r="2.5"/>
		<circle cx="354.5" cy="309.5" r="1.5"/>
		<circle cx="362.5" cy="296.5" r="2.5"/>
		<circle cx="375.5" cy="309.5" r="1.5"/>
		<circle cx="383.5" cy="296.5" r="2.5"/>
		<circle cx="396.5" cy="309.5" r="1.5"/>
		<circle cx="404.5" cy="296.5" r="2.5"/>
		<circle cx="417.5" cy="309.5" r="1.5"/>
		<circle cx="425.5" cy="296.5" r="2.5"/>
		<circle cx="438.5" cy="309.5" r="1.5"/>
		<circle cx="446.5" cy="296.5" r="2.5"/>
		<circle cx="459.5" cy="309.5" r="1.5"/>
		<circle cx="467.5" cy="296.5" r="2.5"/>
		<circle cx="480.5" cy="309.5" r="1.5"/>
		<circle cx="488.5" cy="296.5" r="2.5"/>
		<circle cx="501.5" cy="309.5" r="1.5"/>
		<circle cx="509.5" cy="296.5" r="2.5"/>
		<circle cx="522.5" cy="309.5" r="1.5"/>
		<circle cx="5.5" cy="317.5" r="2.5"/>
		<circle cx="18.5" cy="330.5" r="1.5"/>
		<circle cx="26.5" cy="317.5" r="2.5"/>
		<circle cx="39.5" cy="330.5" r="1.5"/>
		<circle cx="47.5" cy="317.5" r="2.5"/>
		<circle cx="60.5" cy="330.5" r="1.5"/>
		<circle cx="68.5" cy="317.5" r="2.5"/>
		<circle cx="81.5" cy="330.5" r="1.5"/>
		<circle cx="89.5" cy="317.5" r="2.5"/>
		<circle cx="102.5" cy="330.5" r="1.5"/>
		<circle cx="110.5" cy="317.5" r="2.5"/>
		<circle cx="123.5" cy="330.5" r="1.5"/>
		<circle cx="131.5" cy="317.5" r="2.5"/>
		<circle cx="144.5" cy="330.5" r="1.5"/>
		<circle cx="152.5" cy="317.5" r="2.5"/>
		<circle cx="165.5" cy="330.5" r="1.5"/>
		<circle cx="173.5" cy="317.5" r="2.5"/>
		<circle cx="186.5" cy="330.5" r="1.5"/>
		<circle cx="194.5" cy="317.5" r="2.5"/>
		<circle cx="207.5" cy="330.5" r="1.5"/>
		<circle cx="215.5" cy="317.5" r="2.5"/>
		<circle cx="228.5" cy="330.5" r="1.5"/>
		<circle cx="236.5" cy="317.5" r="2.5"/>
		<circle cx="249.5" cy="330.5" r="1.5"/>
		<circle cx="257.5" cy="317.5" r="2.5"/>
		<circle cx="270.5" cy="330.5" r="1.5"/>
		<circle cx="278.5" cy="317.5" r="2.5"/>
		<circle cx="291.5" cy="330.5" r="1.5"/>
		<circle cx="299.5" cy="317.5" r="2.5"/>
		<circle cx="312.5" cy="330.5" r="1.5"/>
		<circle cx="320.5" cy="317.5" r="2.5"/>
		<circle cx="333.5" cy="330.5" r="1.5"/>
		<circle cx="341.5" cy="317.5" r="2.5"/>
		<circle cx="354.5" cy="330.5" r="1.5"/>
		<circle cx="362.5" cy="317.5" r="2.5"/>
		<circle cx="375.5" cy="330.5" r="1.5"/>
		<circle cx="383.5" cy="317.5" r="2.5"/>
		<circle cx="396.5" cy="330.5" r="1.5"/>
		<circle cx="404.5" cy="317.5" r="2.5"/>
		<circle cx="417.5" cy="330.5" r="1.5"/>
		<circle cx="425.5" cy="317.5" r="2.5"/>
		<circle cx="438.5" cy="330.5" r="1.5"/>
		<circle cx="446.5" cy="317.5" r="2.5"/>
		<circle cx="459.5" cy="330.5" r="1.5"/>
		<circle cx="467.5" cy="317.5" r="2.5"/>
		<circle cx="480.5" cy="330.5" r="1.5"/>
		<circle cx="488.5" cy="317.5" r="2.5"/>
		<circle cx="501.5" cy="330.5" r="1.5"/>
		<circle cx="509.5" cy="317.5" r="2.5"/>
		<circle cx="522.5" cy="330.5" r="1.5"/>
		<circle cx="5.5" cy="338.5" r="2.5"/>
		<circle cx="18.5" cy="351.5" r="1.5"/>
		<circle cx="26.5" cy="338.5" r="2.5"/>
		<circle cx="39.5" cy="351.5" r="1.5"/>
		<circle cx="47.5" cy="338.5" r="2.5"/>
		<circle cx="60.5" cy="351.5" r="1.5"/>
		<circle cx="68.5" cy="338.5" r="2.5"/>
		<circle cx="81.5" cy="351.5" r="1.5"/>
		<circle cx="89.5" cy="338.5" r="2.5"/>
		<circle cx="102.5" cy="351.5" r="1.5"/>
		<circle cx="110.5" cy="338.5" r="2.5"/>
		<circle cx="123.5" cy="351.5" r="1.5"/>
		<circle cx="131.5" cy="338.5" r="2.5"/>
		<circle cx="144.5" cy="351.5" r="1.5"/>
		<circle cx="152.5" cy="338.5" r="2.5"/>
		<circle cx="165.5" cy="351.5" r="1.5"/>
		<circle cx="173.5" cy="338.5" r="2.5"/>
		<circle cx="186.5" cy="351.5" r="1.5"/>
		<circle cx="194.5" cy="338.5" r="2.5"/>
		<circle cx="207.5" cy="351.5" r="1.5"/>
		<circle cx="215.5" cy="338.5" r="2.5"/>
		<circle cx="228.5" cy="351.5" r="1.5"/>
		<circle cx="236.5" cy="338.5" r="2.5"/>
		<circle cx="249.5" cy="351.5" r="1.5"/>
		<circle cx="257.5" cy="338.5" r="2.5"/>
		<circle cx="270.5" cy="351.5" r="1.5"/>
		<circle cx="278.5" cy="338.5" r="2.5"/>
		<circle cx="291.5" cy="351.5" r="1.5"/>
		<circle cx="299.5" cy="338.5" r="2.5"/>
		<circle cx="312.5" cy="351.5" r="1.5"/>
		<circle cx="320.5" cy="338.5" r="2.5"/>
		<circle cx="333.5" cy="351.5" r="1.5"/>
		<circle cx="341.5" cy="338.5" r="2.5"/>
		<circle cx="354.5" cy="351.5" r="1.5"/>
		<circle cx="362.5" cy="338.5" r="2.5"/>
		<circle cx="375.5" cy="351.5" r="1.5"/>
		<circle cx="383.5" cy="338.5" r="2.5"/>
		<circle cx="396.5" cy="351.5" r="1.5"/>
		<circle cx="404.5" cy="338.5" r="2.5"/>
		<circle cx="417.5" cy="351.5" r="1.5"/>
		<circle cx="425.5" cy="338.5" r="2.5"/>
		<circle cx="438.5" cy="351.5" r="1.5"/>
		<circle cx="446.5" cy="338.5" r="2.5"/>
		<circle cx="459.5" cy="351.5" r="1.5"/>
		<circle cx="467.5" cy="338.5" r="2.5"/>
		<circle cx="480.5" cy="351.5" r="1.5"/>
		<circle cx="488.5" cy="338.5" r="2.5"/>
		<circle cx="501.5" cy="351.5" r="1.5"/>
		<circle cx="509.5" cy="338.5" r="2.5"/>
		<circle cx="522.5" cy="351.5" r="1.5"/>
		<circle cx="5.5" cy="359.5" r="2.5"/>
		<circle cx="18.5" cy="372.5" r="1.5"/>
		<circle cx="26.5" cy="359.5" r="2.5"/>
		<circle cx="39.5" cy="372.5" r="1.5"/>
		<circle cx="47.5" cy="359.5" r="2.5"/>
		<circle cx="60.5" cy="372.5" r="1.5"/>
		<circle cx="68.5" cy="359.5" r="2.5"/>
		<circle cx="81.5" cy="372.5" r="1.5"/>
		<circle cx="89.5" cy="359.5" r="2.5"/>
		<circle cx="102.5" cy="372.5" r="1.5"/>
		<circle cx="110.5" cy="359.5" r="2.5"/>
		<circle cx="123.5" cy="372.5" r="1.5"/>
		<circle cx="131.5" cy="359.5" r="2.5"/>
		<circle cx="144.5" cy="372.5" r="1.5"/>
		<circle cx="152.5" cy="359.5" r="2.5"/>
		<circle cx="165.5" cy="372.5" r="1.5"/>
		<circle cx="173.5" cy="359.5" r="2.5"/>
		<circle cx="186.5" cy="372.5" r="1.5"/>
		<circle cx="194.5" cy="359.5" r="2.5"/>
		<circle cx="207.5" cy="372.5" r="1.5"/>
		<circle cx="215.5" cy="359.5" r="2.5"/>
		<circle cx="228.5" cy="372.5" r="1.5"/>
		<circle cx="236.5" cy="359.5" r="2.5"/>
		<circle cx="249.5" cy="372.5" r="1.5"/>
		<circle cx="257.5" cy="359.5" r="2.5"/>
		<circle cx="270.5" cy="372.5" r="1.5"/>
		<circle cx="278.5" cy="359.5" r="2.5"/>
		<circle cx="291.5" cy="372.5" r="1.5"/>
		<circle cx="299.5" cy="359.5" r="2.5"/>
		<circle cx="312.5" cy="372.5" r="1.5"/>
		<circle cx="320.5" cy="359.5" r="2.5"/>
		<circle cx="333.5" cy="372.5" r="1.5"/>
		<circle cx="341.5" cy="359.5" r="2.5"/>
		<circle cx="354.5" cy="372.5" r="1.5"/>
		<circle cx="362.5" cy="359.5" r="2.5"/>
		<circle cx="375.5" cy="372.5" r="1.5"/>
		<circle cx="383.5" cy="359.5" r="2.5"/>
		<circle cx="396.5" cy="372.5" r="1.5"/>
		<circle cx="404.5" cy="359.5" r="2.5"/>
		<circle cx="417.5" cy="372.5" r="1.5"/>
		<circle cx="425.5" cy="359.5" r="2.5"/>
		<circle cx="438.5" cy="372.5" r="1.5"/>
		<circle cx="446.5" cy="359.5" r="2.5"/>
		<circle cx="459.5" cy="372.5" r="1.5"/>
		<circle cx="467.5" cy="359.5" r="2.5"/>
		<circle cx="480.5" cy="372.5" r="1.5"/>
		<circle cx="488.5" cy="359.5" r="2.5"/>
		<circle cx="501.5" cy="372.5" r="1.5"/>
		<circle cx="509.5" cy="359.5" r="2.5"/>
		<circle cx="522.5" cy="372.5" r="1.5"/>
		<circle cx="5.5" cy="380.5" r="2.5"/>
		<circle cx="18.5" cy="393.5" r="1.5"/>
		<circle cx="26.5" cy="380.5" r="2.5"/>
		<circle cx="39.5" cy="393.5" r="1.5"/>
		<circle cx="47.5" cy="380.5" r="2.5"/>
		<circle cx="60.5" cy="393.5" r="1.5"/>
		<circle cx="68.5" cy="380.5" r="2.5"/>
		<circle cx="81.5" cy="393.5" r="1.5"/>
		<circle cx="89.5" cy="380.5" r="2.5"/>
		<circle cx="102.5" cy="393.5" r="1.5"/>
		<circle cx="110.5" cy="380.5" r="2.5"/>
		<circle cx="123.5" cy="393.5" r="1.5"/>
		<circle cx="131.5" cy="380.5" r="2.5"/>
		<circle cx="144.5" cy="393.5" r="1.5"/>
		<circle cx="152.5" cy="380.5" r="2.5"/>
		<circle cx="165.5" cy="393.5" r="1.5"/>
		<circle cx="173.5" cy="380.5" r="2.5"/>
		<circle cx="186.5" cy="393.5" r="1.5"/>
		<circle cx="194.5" cy="380.5" r="2.5"/>
		<circle cx="207.5" cy="393.5" r="1.5"/>
		<circle cx="215.5" cy="380.5" r="2.5"/>
		<circle cx="228.5" cy="393.5" r="1.5"/>
		<circle cx="236.5" cy="380.5" r="2.5"/>
		<circle cx="249.5" cy="393.5" r="1.5"/>
		<circle cx="257.5" cy="380.5" r="2.5"/>
		<circle cx="270.5" cy="393.5" r="1.5"/>
		<circle cx="278.5" cy="380.5" r="2.5"/>
		<circle cx="291.5" cy="393.5" r="1.5"/>
		<circle cx="299.5" cy="380.5" r="2.5"/>
		<circle cx="312.5" cy="393.5" r="1.5"/>
		<circle cx="320.5" cy="380.5" r="2.5"/>
		<circle cx="333.5" cy="393.5" r="1.5"/>
		<circle cx="341.5" cy="380.5" r="2.5"/>
		<circle cx="354.5" cy="393.5" r="1.5"/>
		<circle cx="362.5" cy="380.5" r="2.5"/>
		<circle cx="375.5" cy="393.5" r="1.5"/>
		<circle cx="383.5" cy="380.5" r="2.5"/>
		<circle cx="396.5" cy="393.5" r="1.5"/>
		<circle cx="404.5" cy="380.5" r="2.5"/>
		<circle cx="417.5" cy="393.5" r="1.5"/>
		<circle cx="425.5" cy="380.5" r="2.5"/>
		<circle cx="438.5" cy="393.5" r="1.5"/>
		<circle cx="446.5" cy="380.5" r="2.5"/>
		<circle cx="459.5" cy="393.5" r="1.5"/>
		<circle cx="467.5" cy="380.5" r="2.5"/>
		<circle cx="480.5" cy="393.5" r="1.5"/>
		<circle cx="488.5" cy="380.5" r="2.5"/>
		<circle cx="501.5" cy="393.5" r="1.5"/>
		<circle cx="509.5" cy="380.5" r="2.5"/>
		<circle cx="522.5" cy="393.5" r="1.5"/>
		<circle cx="26.5" cy="401.5" r="2.5"/>
		<circle cx="5.5" cy="401.5" r="2.5"/>
		<circle cx="18.5" cy="414.5" r="1.5"/>
		<circle cx="39.5" cy="414.5" r="1.5"/>
		<circle cx="47.5" cy="401.5" r="2.5"/>
		<circle cx="60.5" cy="414.5" r="1.5"/>
		<circle cx="68.5" cy="401.5" r="2.5"/>
		<circle cx="81.5" cy="414.5" r="1.5"/>
		<circle cx="89.5" cy="401.5" r="2.5"/>
		<circle cx="102.5" cy="414.5" r="1.5"/>
		<circle cx="110.5" cy="401.5" r="2.5"/>
		<circle cx="123.5" cy="414.5" r="1.5"/>
		<circle cx="131.5" cy="401.5" r="2.5"/>
		<circle cx="144.5" cy="414.5" r="1.5"/>
		<circle cx="152.5" cy="401.5" r="2.5"/>
		<circle cx="165.5" cy="414.5" r="1.5"/>
		<circle cx="173.5" cy="401.5" r="2.5"/>
		<circle cx="186.5" cy="414.5" r="1.5"/>
		<circle cx="194.5" cy="401.5" r="2.5"/>
		<circle cx="207.5" cy="414.5" r="1.5"/>
		<circle cx="215.5" cy="401.5" r="2.5"/>
		<circle cx="228.5" cy="414.5" r="1.5"/>
		<circle cx="236.5" cy="401.5" r="2.5"/>
		<circle cx="249.5" cy="414.5" r="1.5"/>
		<circle cx="257.5" cy="401.5" r="2.5"/>
		<circle cx="270.5" cy="414.5" r="1.5"/>
		<circle cx="278.5" cy="401.5" r="2.5"/>
		<circle cx="291.5" cy="414.5" r="1.5"/>
		<circle cx="299.5" cy="401.5" r="2.5"/>
		<circle cx="312.5" cy="414.5" r="1.5"/>
		<circle cx="320.5" cy="401.5" r="2.5"/>
		<circle cx="333.5" cy="414.5" r="1.5"/>
		<circle cx="341.5" cy="401.5" r="2.5"/>
		<circle cx="354.5" cy="414.5" r="1.5"/>
		<circle cx="362.5" cy="401.5" r="2.5"/>
		<circle cx="375.5" cy="414.5" r="1.5"/>
		<circle cx="383.5" cy="401.5" r="2.5"/>
		<circle cx="396.5" cy="414.5" r="1.5"/>
		<circle cx="404.5" cy="401.5" r="2.5"/>
		<circle cx="417.5" cy="414.5" r="1.5"/>
		<circle cx="425.5" cy="401.5" r="2.5"/>
		<circle cx="438.5" cy="414.5" r="1.5"/>
		<circle cx="446.5" cy="401.5" r="2.5"/>
		<circle cx="459.5" cy="414.5" r="1.5"/>
		<circle cx="467.5" cy="401.5" r="2.5"/>
		<circle cx="480.5" cy="414.5" r="1.5"/>
		<circle cx="488.5" cy="401.5" r="2.5"/>
		<circle cx="501.5" cy="414.5" r="1.5"/>
		<circle cx="509.5" cy="401.5" r="2.5"/>
		<circle cx="522.5" cy="414.5" r="1.5"/>
	</g>

	<rect opacity="0.2" x="50" y="29" width="475" height="409" fill="#3F4F7F"/>

	<circle opacity="0.2" cx="342" cy="313" r="221" stroke="#AFC6FF" stroke-width="2"/>
</svg>
