<svg width="21" height="21" viewBox="0 0 21 21" xmlns="http://www.w3.org/2000/svg">
<path d="M10.553 19.2499C13.7848 19.2499 16.7487 17.4781 18.2923 14.6247C18.4201 14.3903 18.3978 14.1037 18.2395 13.8917C18.0812 13.6796 17.8083 13.5777 17.5535 13.6357C17.0259 13.7509 16.4941 13.808 15.9706 13.808C11.8639 13.808 8.52147 10.4509 8.52147 6.32425C8.52147 5.07847 8.83395 3.84584 9.4226 2.75507C9.5504 2.52066 9.52814 2.23408 9.36984 2.02203C9.21154 1.80998 8.93863 1.70809 8.68388 1.76609C4.66543 2.63995 1.75 6.27124 1.75 10.4062C1.75 15.2832 5.69838 19.25 10.5529 19.25L10.553 19.2499Z"/>
</svg>
