<svg width="19" height="19" viewBox="0 0 19 19" xmlns="http://www.w3.org/2000/svg">
<path fill-rule="evenodd" clip-rule="evenodd" d="M13.4583 9.49967C13.4583 11.6862 11.6862 13.4583 9.49967 13.4583C7.31355 13.4583 5.54163 11.6862 5.54163 9.49967C5.54163 7.31355 7.3137 5.54163 9.49967 5.54163C11.6862 5.54163 13.4583 7.3137 13.4583 9.49967"/>
<path fill-rule="evenodd" clip-rule="evenodd" d="M11.3 1.74415C11.3 2.70751 10.5192 3.48904 9.55506 3.48904C8.5917 3.48904 7.81091 2.70751 7.81091 1.74415C7.81091 0.780788 8.5917 0 9.55506 0C10.5192 0 11.3 0.780788 11.3 1.74415"/>
<path fill-rule="evenodd" clip-rule="evenodd" d="M5.28875 2.74322C5.96933 3.42455 5.96933 4.52893 5.28875 5.21019C4.60743 5.89152 3.50305 5.89152 2.82178 5.21019C2.14046 4.52887 2.14046 3.42449 2.82178 2.74322C3.50311 2.06264 4.60748 2.06264 5.28875 2.74322Z"/>
<path fill-rule="evenodd" clip-rule="evenodd" d="M1.74415 7.7002C2.70751 7.7002 3.48904 8.48098 3.48904 9.44508C3.48904 10.4084 2.70751 11.1892 1.74415 11.1892C0.780788 11.1892 0 10.4084 0 9.44508C0 8.48098 0.780788 7.7002 1.74415 7.7002"/>
<path fill-rule="evenodd" clip-rule="evenodd" d="M2.74322 13.7112C3.42455 13.0307 4.52893 13.0307 5.21019 13.7112C5.89151 14.3926 5.89151 15.4969 5.21019 16.1782C4.52887 16.8595 3.42449 16.8595 2.74322 16.1782C2.06264 15.4969 2.06264 14.3925 2.74322 13.7112Z"/>
<path fill-rule="evenodd" clip-rule="evenodd" d="M11.1892 17.2559C11.1892 18.2192 10.4084 19 9.44508 19C8.48098 19 7.7002 18.2192 7.7002 17.2559C7.7002 16.2925 8.48098 15.511 9.44508 15.511C10.4084 15.511 11.1892 16.2925 11.1892 17.2559"/>
<path fill-rule="evenodd" clip-rule="evenodd" d="M13.7111 16.2568C13.0305 15.5754 13.0305 14.4711 13.7111 13.7898C14.3924 13.1085 15.4968 13.1085 16.1781 13.7898C16.8594 14.4711 16.8594 15.5755 16.1781 16.2568C15.4968 16.9374 14.3924 16.9374 13.7111 16.2568Z"/>
<path fill-rule="evenodd" clip-rule="evenodd" d="M17.2559 11.2999C16.2925 11.2999 15.511 10.5192 15.511 9.55506C15.511 8.5917 16.2925 7.81091 17.2559 7.81091C18.2192 7.81091 19 8.5917 19 9.55506C19 10.5192 18.2192 11.2999 17.2559 11.2999Z"/>
<path fill-rule="evenodd" clip-rule="evenodd" d="M16.2568 5.28887C15.5754 5.96945 14.4711 5.96945 13.7898 5.28887C13.1085 4.60755 13.1085 3.50317 13.7898 2.82191C14.4711 2.14058 15.5755 2.14058 16.2568 2.82191C16.9373 3.50323 16.9373 4.60761 16.2568 5.28887Z"/>
</svg>
